<svg width="262" height="56" viewBox="0 0 262 56" fill="none" xmlns="http://www.w3.org/2000/svg">
<g filter="url(#filter0_dd_2_4)">
<g filter="url(#filter1_d_2_4)">
<path d="M156.328 47V18.68H145.192V13.4H173.704V18.68H162.568V47H156.328ZM187.234 47.336C184.386 47.336 181.89 46.776 179.746 45.656C177.634 44.504 175.986 42.936 174.802 40.952C173.65 38.968 173.074 36.712 173.074 34.184C173.074 31.624 173.634 29.368 174.754 27.416C175.906 25.432 177.474 23.88 179.458 22.76C181.474 21.64 183.762 21.08 186.322 21.08C188.818 21.08 191.042 21.624 192.994 22.712C194.946 23.8 196.482 25.336 197.602 27.32C198.722 29.304 199.282 31.64 199.282 34.328C199.282 34.584 199.266 34.872 199.234 35.192C199.234 35.512 199.218 35.816 199.186 36.104H177.826V32.12H196.018L193.666 33.368C193.698 31.896 193.394 30.6 192.754 29.48C192.114 28.36 191.234 27.48 190.114 26.84C189.026 26.2 187.762 25.88 186.322 25.88C184.85 25.88 183.554 26.2 182.434 26.84C181.346 27.48 180.482 28.376 179.842 29.528C179.234 30.648 178.93 31.976 178.93 33.512V34.472C178.93 36.008 179.282 37.368 179.986 38.552C180.69 39.736 181.682 40.648 182.962 41.288C184.242 41.928 185.714 42.248 187.378 42.248C188.818 42.248 190.114 42.024 191.266 41.576C192.418 41.128 193.442 40.424 194.338 39.464L197.554 43.16C196.402 44.504 194.946 45.544 193.186 46.28C191.458 46.984 189.474 47.336 187.234 47.336ZM216.805 47.336C214.117 47.336 211.717 46.776 209.605 45.656C207.525 44.504 205.893 42.936 204.709 40.952C203.525 38.968 202.933 36.712 202.933 34.184C202.933 31.624 203.525 29.368 204.709 27.416C205.893 25.432 207.525 23.88 209.605 22.76C211.717 21.64 214.117 21.08 216.805 21.08C219.301 21.08 221.493 21.592 223.381 22.616C225.301 23.608 226.757 25.08 227.749 27.032L223.141 29.72C222.373 28.504 221.429 27.608 220.309 27.032C219.221 26.456 218.037 26.168 216.757 26.168C215.285 26.168 213.957 26.488 212.773 27.128C211.589 27.768 210.661 28.696 209.989 29.912C209.317 31.096 208.981 32.52 208.981 34.184C208.981 35.848 209.317 37.288 209.989 38.504C210.661 39.688 211.589 40.6 212.773 41.24C213.957 41.88 215.285 42.2 216.757 42.2C218.037 42.2 219.221 41.912 220.309 41.336C221.429 40.76 222.373 39.864 223.141 38.648L227.749 41.336C226.757 43.256 225.301 44.744 223.381 45.8C221.493 46.824 219.301 47.336 216.805 47.336ZM247.246 21.08C249.294 21.08 251.118 21.48 252.718 22.28C254.35 23.08 255.63 24.312 256.558 25.976C257.486 27.608 257.95 29.72 257.95 32.312V47H251.95V33.08C251.95 30.808 251.406 29.112 250.318 27.992C249.262 26.872 247.774 26.312 245.854 26.312C244.446 26.312 243.198 26.6 242.11 27.176C241.022 27.752 240.174 28.616 239.566 29.768C238.99 30.888 238.702 32.312 238.702 34.04V47H232.702V11.384H238.702V28.28L237.406 26.168C238.302 24.536 239.598 23.288 241.294 22.424C243.022 21.528 245.006 21.08 247.246 21.08Z" fill="white"/>
</g>
<circle cx="143" cy="40" r="7" fill="#BEF754"/>
<g filter="url(#filter2_d_2_4)">
<path d="M17.928 47.48C15.304 47.48 12.792 47.112 10.392 46.376C7.992 45.608 6.088 44.632 4.68 43.448L6.84 38.6C8.184 39.656 9.848 40.536 11.832 41.24C13.816 41.944 15.848 42.296 17.928 42.296C19.688 42.296 21.112 42.104 22.2 41.72C23.288 41.336 24.088 40.824 24.6 40.184C25.112 39.512 25.368 38.76 25.368 37.928C25.368 36.904 25 36.088 24.264 35.48C23.528 34.84 22.568 34.344 21.384 33.992C20.232 33.608 18.936 33.256 17.496 32.936C16.088 32.616 14.664 32.248 13.224 31.832C11.816 31.384 10.52 30.824 9.336 30.152C8.184 29.448 7.24 28.52 6.504 27.368C5.768 26.216 5.4 24.744 5.4 22.952C5.4 21.128 5.88 19.464 6.84 17.96C7.832 16.424 9.32 15.208 11.304 14.312C13.32 13.384 15.864 12.92 18.936 12.92C20.952 12.92 22.952 13.176 24.936 13.688C26.92 14.2 28.648 14.936 30.12 15.896L28.152 20.744C26.648 19.848 25.096 19.192 23.496 18.776C21.896 18.328 20.36 18.104 18.888 18.104C17.16 18.104 15.752 18.312 14.664 18.728C13.608 19.144 12.824 19.688 12.312 20.36C11.832 21.032 11.592 21.8 11.592 22.664C11.592 23.688 11.944 24.52 12.648 25.16C13.384 25.768 14.328 26.248 15.48 26.6C16.664 26.952 17.976 27.304 19.416 27.656C20.856 27.976 22.28 28.344 23.688 28.76C25.128 29.176 26.424 29.72 27.576 30.392C28.76 31.064 29.704 31.976 30.408 33.128C31.144 34.28 31.512 35.736 31.512 37.496C31.512 39.288 31.016 40.952 30.024 42.488C29.064 43.992 27.576 45.208 25.56 46.136C23.544 47.032 21 47.48 17.928 47.48ZM52.9155 47V41.816L52.5795 40.712V31.64C52.5795 29.88 52.0515 28.52 50.9955 27.56C49.9395 26.568 48.3395 26.072 46.1955 26.072C44.7555 26.072 43.3315 26.296 41.9235 26.744C40.5475 27.192 39.3795 27.816 38.4195 28.616L36.0675 24.248C37.4435 23.192 39.0755 22.408 40.9635 21.896C42.8835 21.352 44.8675 21.08 46.9155 21.08C50.6275 21.08 53.4915 21.976 55.5075 23.768C57.5555 25.528 58.5795 28.264 58.5795 31.976V47H52.9155ZM44.8515 47.336C42.9315 47.336 41.2515 47.016 39.8115 46.376C38.3715 45.704 37.2515 44.792 36.4515 43.64C35.6835 42.456 35.2995 41.128 35.2995 39.656C35.2995 38.216 35.6355 36.92 36.3075 35.768C37.0115 34.616 38.1475 33.704 39.7155 33.032C41.2835 32.36 43.3635 32.024 45.9555 32.024H53.3955V36.008H46.3875C44.3395 36.008 42.9635 36.344 42.2595 37.016C41.5555 37.656 41.2035 38.456 41.2035 39.416C41.2035 40.504 41.6355 41.368 42.4995 42.008C43.3635 42.648 44.5635 42.968 46.0995 42.968C47.5715 42.968 48.8835 42.632 50.0355 41.96C51.2195 41.288 52.0675 40.296 52.5795 38.984L53.5875 42.584C53.0115 44.088 51.9715 45.256 50.4675 46.088C48.9955 46.92 47.1235 47.336 44.8515 47.336ZM72.627 47L61.635 21.368H67.875L77.331 43.976H74.259L84.051 21.368H89.811L78.819 47H72.627ZM93.561 47V21.368H99.561V47H93.561ZM96.585 17.144C95.465 17.144 94.537 16.792 93.801 16.088C93.097 15.384 92.745 14.536 92.745 13.544C92.745 12.52 93.097 11.672 93.801 11C94.537 10.296 95.465 9.944 96.585 9.944C97.705 9.944 98.617 10.28 99.321 10.952C100.057 11.592 100.425 12.408 100.425 13.4C100.425 14.456 100.073 15.352 99.369 16.088C98.665 16.792 97.737 17.144 96.585 17.144ZM123.228 47V41.816L122.892 40.712V31.64C122.892 29.88 122.364 28.52 121.308 27.56C120.252 26.568 118.652 26.072 116.508 26.072C115.068 26.072 113.644 26.296 112.236 26.744C110.86 27.192 109.692 27.816 108.732 28.616L106.38 24.248C107.756 23.192 109.388 22.408 111.276 21.896C113.196 21.352 115.18 21.08 117.228 21.08C120.94 21.08 123.804 21.976 125.82 23.768C127.868 25.528 128.892 28.264 128.892 31.976V47H123.228ZM115.164 47.336C113.244 47.336 111.564 47.016 110.124 46.376C108.684 45.704 107.564 44.792 106.764 43.64C105.996 42.456 105.612 41.128 105.612 39.656C105.612 38.216 105.948 36.92 106.62 35.768C107.324 34.616 108.46 33.704 110.028 33.032C111.596 32.36 113.676 32.024 116.268 32.024H123.708V36.008H116.7C114.652 36.008 113.276 36.344 112.572 37.016C111.868 37.656 111.516 38.456 111.516 39.416C111.516 40.504 111.948 41.368 112.812 42.008C113.676 42.648 114.876 42.968 116.412 42.968C117.884 42.968 119.196 42.632 120.348 41.96C121.532 41.288 122.38 40.296 122.892 38.984L123.9 42.584C123.324 44.088 122.284 45.256 120.78 46.088C119.308 46.92 117.436 47.336 115.164 47.336Z" fill="white"/>
</g>
</g>
<defs>
<filter id="filter0_dd_2_4" x="-1" y="0" width="265" height="61" filterUnits="userSpaceOnUse" color-interpolation-filters="sRGB">
<feFlood flood-opacity="0" result="BackgroundImageFix"/>
<feColorMatrix in="SourceAlpha" type="matrix" values="0 0 0 0 0 0 0 0 0 0 0 0 0 0 0 0 0 0 127 0" result="hardAlpha"/>
<feOffset dy="4"/>
<feGaussianBlur stdDeviation="2"/>
<feComposite in2="hardAlpha" operator="out"/>
<feColorMatrix type="matrix" values="0 0 0 0 0 0 0 0 0 0 0 0 0 0 0 0 0 0 0.25 0"/>
<feBlend mode="normal" in2="BackgroundImageFix" result="effect1_dropShadow_2_4"/>
<feColorMatrix in="SourceAlpha" type="matrix" values="0 0 0 0 0 0 0 0 0 0 0 0 0 0 0 0 0 0 127 0" result="hardAlpha"/>
<feOffset dy="4"/>
<feGaussianBlur stdDeviation="2"/>
<feComposite in2="hardAlpha" operator="out"/>
<feColorMatrix type="matrix" values="0 0 0 0 0 0 0 0 0 0 0 0 0 0 0 0 0 0 0.25 0"/>
<feBlend mode="normal" in2="effect1_dropShadow_2_4" result="effect2_dropShadow_2_4"/>
<feBlend mode="normal" in="SourceGraphic" in2="effect2_dropShadow_2_4" result="shape"/>
</filter>
<filter id="filter1_d_2_4" x="141.192" y="11.384" width="120.758" height="43.952" filterUnits="userSpaceOnUse" color-interpolation-filters="sRGB">
<feFlood flood-opacity="0" result="BackgroundImageFix"/>
<feColorMatrix in="SourceAlpha" type="matrix" values="0 0 0 0 0 0 0 0 0 0 0 0 0 0 0 0 0 0 127 0" result="hardAlpha"/>
<feOffset dy="4"/>
<feGaussianBlur stdDeviation="2"/>
<feComposite in2="hardAlpha" operator="out"/>
<feColorMatrix type="matrix" values="0 0 0 0 0 0 0 0 0 0 0 0 0 0 0 0 0 0 0.25 0"/>
<feBlend mode="normal" in2="BackgroundImageFix" result="effect1_dropShadow_2_4"/>
<feBlend mode="normal" in="SourceGraphic" in2="effect1_dropShadow_2_4" result="shape"/>
</filter>
<filter id="filter2_d_2_4" x="0.679993" y="9.944" width="132.212" height="45.536" filterUnits="userSpaceOnUse" color-interpolation-filters="sRGB">
<feFlood flood-opacity="0" result="BackgroundImageFix"/>
<feColorMatrix in="SourceAlpha" type="matrix" values="0 0 0 0 0 0 0 0 0 0 0 0 0 0 0 0 0 0 127 0" result="hardAlpha"/>
<feOffset dy="4"/>
<feGaussianBlur stdDeviation="2"/>
<feComposite in2="hardAlpha" operator="out"/>
<feColorMatrix type="matrix" values="0 0 0 0 0 0 0 0 0 0 0 0 0 0 0 0 0 0 0.25 0"/>
<feBlend mode="normal" in2="BackgroundImageFix" result="effect1_dropShadow_2_4"/>
<feBlend mode="normal" in="SourceGraphic" in2="effect1_dropShadow_2_4" result="shape"/>
</filter>
</defs>
</svg>
